<?xml version="1.0" encoding="utf-8"?>
<!-- Generator: Adobe Illustrator 21.0.0, SVG Export Plug-In . SVG Version: 6.00 Build 0)  -->
<svg version="1.1" id="Layer_1" xmlns="http://www.w3.org/2000/svg" xmlns:xlink="http://www.w3.org/1999/xlink" x="0px" y="0px"
	 viewBox="0 0 1920 331.9" style="enable-background:new 0 0 1920 331.9;" xml:space="preserve">
<style type="text/css">
	.st0{fill:#009736;}
	.st1{fill:#00A5EA;}
	.st2{fill:#97BF00;}
	.st3{fill:#656D72;}
	.st4{fill:#FFFFFF;}
</style>
<g>
	<g>
		<path class="st0" d="M214.5,117.4c-52.3,2.9-94.3,44.8-97.2,97.2C169.7,211.7,211.7,169.7,214.5,117.4z"/>
		<path class="st1" d="M214.5,117.4c0.1-1.9,0.3-3.8,0.3-5.7V0h-97.7v111.7c0,3-2.4,5.4-5.4,5.4H0v97.7h111.7c1.9,0,3.8-0.2,5.7-0.3
			C120.3,162.2,162.2,120.3,214.5,117.4z"/>
		<path class="st2" d="M220.2,117.1c-1.9,0-3.8,0.2-5.7,0.3c-2.9,52.3-44.8,94.3-97.2,97.2c-0.1,1.9-0.3,3.8-0.3,5.7v111.7h97.7
			V220.2c0-3,2.4-5.4,5.4-5.4h111.7v-97.7H220.2z"/>
	</g>
	<g>
		<path class="st3" d="M464,260.9h-11.6c-9.9,0-18-8.1-18-18V88.8c0-9.9,8.1-18,18-18h121.5V13H452.4c-41.8,0-75.8,34-75.8,75.8V243
			c0,41.8,34,75.8,75.8,75.8H464V260.9z"/>
		<path class="st1" d="M541.6,260.9h-68.7v57.9h68.7c37.3,0,57.9-26.3,57.9-57.9v-68.4h-57.9V243V260.9z"/>
		<path class="st2" d="M1285.6,74.5v65.1h-55.1V74.5c0-39.8,15.3-55.1,55.1-55.1h65.1v55.1h-63.3H1285.6z"/>
		<path class="st3" d="M1349.3,147.9h-13.1h-24.9h-8.6h-70.1c7.7,31.6,36.2,55.1,70.1,55.1h33.5h13.1c9.4,0,17.1,7.7,17.1,17.1v26.5
			c0,9.4-7.7,17.1-17.1,17.1h-118.6v55.1h118.6c39.8,0,72.2-32.4,72.2-72.2v-26.5C1421.5,180.3,1389.1,147.9,1349.3,147.9z"/>
		<g>
			<g>
				<path class="st3" d="M617.4,143.7h100.5c14.4,0,25.5,3.6,33.1,10.8c7.6,7.2,11.5,17.4,11.5,30.5v92.7c0,11.6-3.8,21.3-11.5,29.1
					c-7.6,7.8-17.2,11.6-28.6,11.6h-60.7c-14.4,0-25.6-3.4-33.4-10.3c-7.9-6.9-11.8-16.6-11.8-29.1v-35.5c0-12.9,3.8-23.1,11.5-30.5
					c7.6-7.4,18.1-11.1,31.5-11.1h59.1v-4.2c0-8-4-12-12-12h-89.2V143.7z M661,265.5c0,2.6,1.1,4.9,3.4,6.9c2.3,2,4.9,3.1,7.9,3.1
					h34.2c8,0,12-3.3,12-10v-12.3c0-6.9-4.1-10.3-12.3-10.3h-33.9c-4.5,0-7.5,0.8-9,2.3c-1.5,1.5-2.3,4.6-2.3,9.4V265.5z"/>
				<path class="st3" d="M777.4,318.5l-0.6-132.8c0-12.9,3.6-23.1,10.8-30.7c7.2-7.5,17.3-11.3,30.2-11.3h33.9
					c5,0,10.5,0.6,16.6,1.9c6.1,1.3,12.1,5.8,17.9,13.6l6.1-7.4c6-5.4,15.5-8.1,28.4-8.1h33.9c12.3,0,22.1,3.8,29.6,11.5
					c7.4,7.6,11.1,17.8,11.1,30.5v132.8h-44.3V201.5c0-8.8-4-13.2-12-13.2h-19.4c-7.8,0-11.6,3.7-11.6,11v119.2h-43.9V199.3
					c0-7.3-3.9-11-11.6-11h-19.4c-8.2,0-12.3,4.4-12.3,13.2l0.3,116.9H777.4z"/>
				<path class="st3" d="M1158.5,318.5h-96.9c-15.5,0-27.2-3.7-35.2-11c-5-4.3-8.2-9-9.9-14.1c-1.6-5.1-2.4-11.9-2.4-20.5l-0.6-88.2
					c0-12.1,3.9-21.9,11.8-29.6c7.9-7.6,18.5-11.5,31.8-11.5h59.8c13.4,0,23.7,3.7,31,11.1c7.3,7.4,11,17.8,11,31.2v34.9L1058.7,259
					v2.9c0,8.2,2.9,12.3,8.7,12.3h91.1V318.5z M1058,201.5v18.1l55.9-20.7c0-2.6-1-4.6-2.9-6c-1.9-1.4-4.5-2.3-7.8-2.7h-31
					c-3.9,0-7.2,1.1-10,3.2C1059.4,195.6,1058,198.3,1058,201.5z"/>
			</g>
			<g>
				<path class="st3" d="M1448.4,144.2h100.5c14.4,0,25.5,3.6,33.1,10.8c7.6,7.2,11.5,17.4,11.5,30.5v92.7
					c0,11.6-3.8,21.3-11.5,29.1c-7.6,7.8-17.2,11.6-28.6,11.6h-60.7c-14.4,0-25.6-3.4-33.4-10.3c-7.9-6.9-11.8-16.6-11.8-29.1V244
					c0-12.9,3.8-23.1,11.5-30.5c7.6-7.4,18.1-11.1,31.5-11.1h59.1v-4.2c0-8-4-12-12-12h-89.2V144.2z M1492,266
					c0,2.6,1.1,4.9,3.4,6.9c2.3,2,4.9,3.1,7.9,3.1h34.2c8,0,12-3.3,12-10v-12.3c0-6.9-4.1-10.3-12.3-10.3h-33.9
					c-4.5,0-7.5,0.8-9,2.3c-1.5,1.5-2.3,4.6-2.3,9.4V266z"/>
				<path class="st3" d="M1623.8,319V79h44.6v65.3h29.7v44.6h-29.7V319H1623.8z"/>
				<path class="st3" d="M1714.6,319V144.2h43.9V319H1714.6z"/>
				<g>
					<rect x="1786.6" y="274.7" class="st3" width="47.8" height="44.3"/>
					<path class="st3" d="M1881.2,209.5h-37.1c-8.8,0-13.2-2.8-13.2-8.4v-4.2c0-5.4,4.4-8.1,13.2-8.1h75.9l-0.3-44.6h-89.2
						c-13.4,0-23.9,3.6-31.7,10.7c-7.8,7.1-11.6,16.8-11.6,29.1v32.6c0,9.9,4.1,18.6,12.4,26c8.3,7.4,18,11.1,29.2,11.1h38.1
						c2.8,0,4.8,1.6,6.1,4.8l1,3.9v3.9c0,5.6-3.6,8.4-10.7,8.4h-5.4V319h19.6c10.8,0,19.1-2.6,24.9-7.8c11-8.8,16.5-19.2,16.5-31
						l0.6-32c0-10.1-3.9-19.1-11.8-27C1900,213.4,1891.1,209.5,1881.2,209.5z"/>
				</g>
			</g>
		</g>
	</g>
</g>
</svg>
