<svg xmlns="http://www.w3.org/2000/svg" xmlns:xlink="http://www.w3.org/1999/xlink" viewBox="0 0 128.89 71.41"><defs><style>.cls-1,.cls-4,.cls-6,.cls-9{fill:none;}.cls-2{fill:#4b93ba;}.cls-3{clip-path:url(#clip-path);}.cls-4,.cls-6,.cls-9{stroke-miterlimit:10;}.cls-4,.cls-6{stroke-width:1.76px;}.cls-4{stroke:url(#Adsız_degrade_347);}.cls-5{clip-path:url(#clip-path-2);}.cls-6{stroke:url(#Adsız_degrade_361);}.cls-7{fill:url(#Adsız_degrade_316);}.cls-8{fill:#fff;}.cls-9{stroke-width:0.99px;stroke:url(#Adsız_degrade_327);}</style><clipPath id="clip-path" transform="translate(11.22)"><polygon class="cls-1" points="3.13 45.96 71.05 45.81 72.27 45.81 69.14 25.44 0 25.6 7.2 35.77 3.13 45.96"/></clipPath><linearGradient id="Adsız_degrade_347" x1="-669.05" y1="116.85" x2="-683.91" y2="163.42" gradientTransform="matrix(-1, 0.09, 0.09, 1, -643.8, -46.25)" gradientUnits="userSpaceOnUse"><stop offset="0" stop-color="#65add4"/><stop offset="0.27" stop-color="#d1e9f6"/><stop offset="0.42" stop-color="#dfeff8"/><stop offset="0.52" stop-color="#ecf4f9"/><stop offset="0.61" stop-color="#cee2ed"/><stop offset="0.79" stop-color="#82b4cf"/><stop offset="0.91" stop-color="#4b93ba"/></linearGradient><clipPath id="clip-path-2" transform="translate(11.22)"><polygon class="cls-1" points="103.31 45.96 35.4 45.81 34.18 45.81 37.31 25.44 106.45 25.6 99.25 35.77 103.31 45.96"/></clipPath><linearGradient id="Adsız_degrade_361" x1="-548.99" y1="106.58" x2="-563.85" y2="153.14" gradientTransform="translate(652.2 -46.25) rotate(4.89)" gradientUnits="userSpaceOnUse"><stop offset="0" stop-color="#65add4"/><stop offset="0.18" stop-color="#8dc4e2"/><stop offset="0.27" stop-color="#9dcde7"/><stop offset="0.33" stop-color="#abd4ea"/><stop offset="0.45" stop-color="#d0e6f3"/><stop offset="0.52" stop-color="#ecf4f9"/><stop offset="0.61" stop-color="#cee2ed"/><stop offset="0.79" stop-color="#82b4cf"/><stop offset="0.91" stop-color="#4b93ba"/></linearGradient><linearGradient id="Adsız_degrade_316" x1="40.05" y1="111.19" x2="75.76" y2="49.35" gradientTransform="translate(-12.83 -38.64) rotate(-5.51)" xlink:href="#Adsız_degrade_361"/><linearGradient id="Adsız_degrade_327" x1="39.38" y1="64.54" x2="65.65" y2="6.87" gradientUnits="userSpaceOnUse"><stop offset="0" stop-color="#4b93ba"/><stop offset="0.09" stop-color="#559dc4"/><stop offset="0.27" stop-color="#65add4"/><stop offset="0.31" stop-color="#73b4d8"/><stop offset="0.39" stop-color="#99c8e2"/><stop offset="0.49" stop-color="#d5e8f3"/><stop offset="0.52" stop-color="#ecf4f9"/><stop offset="0.61" stop-color="#cee2ed"/><stop offset="0.79" stop-color="#82b4cf"/><stop offset="0.91" stop-color="#4b93ba"/></linearGradient></defs><g id="katman_2" data-name="katman 2"><g id="OBJECTS"><polygon class="cls-2" points="14.36 45.96 56.09 45.87 56.84 45.87 53.7 25.5 11.22 25.6 19.04 36.12 14.36 45.96"/><g class="cls-3"><polygon class="cls-4" points="5.23 43.96 81.8 43.79 83.18 43.79 80.67 27.47 2.72 27.64 13.99 35.78 5.23 43.96"/></g><polygon class="cls-2" points="114.54 45.96 72.81 45.87 72.06 45.87 75.19 25.5 117.67 25.6 109.85 36.12 114.54 45.96"/><g class="cls-5"><polygon class="cls-6" points="123.66 43.96 47.09 43.79 45.71 43.79 48.22 27.47 126.17 27.64 114.9 35.78 123.66 43.96"/></g><path class="cls-7" d="M88.05,32.27a35.7,35.7,0,1,1-39-32.1A35.7,35.7,0,0,1,88.05,32.27Z" transform="translate(11.22)"/><path class="cls-8" d="M85.37,35.7A32.86,32.86,0,1,1,52.52,2.85,32.86,32.86,0,0,1,85.37,35.7Z" transform="translate(11.22)"/><path class="cls-9" d="M83.56,32.71a31.18,31.18,0,1,1-34-28A31.19,31.19,0,0,1,83.56,32.71Z" transform="translate(11.22)"/><polygon class="cls-2" points="73.62 35.98 73.62 18.94 63.62 34.08 53.62 18.94 53.62 35.98 40.12 25.84 54.12 52.46 63.62 52.46 73.12 52.46 87.12 25.84 73.62 35.98"/></g></g></svg>