<svg xmlns="http://www.w3.org/2000/svg" viewBox="0 0 183.23 181.42">
<defs>
<style>.cls-1{fill:none;stroke:#00a9f0;stroke-linecap:round;stroke-linejoin:round;stroke-width:3px;}.cls-2{fill:#00a9f0;}</style>
</defs>
<g id="katman_2" data-name="katman 2">
<g id="OBJECTS">
<polygon class="cls-1" points="181.73 90.71 175.75 102.81 178.1 116.1 168.94 126.02 167.43 139.43 155.85 146.36 150.63 158.81 137.56 162.22 129.06 172.7 115.57 172.27 104.44 179.91 91.61 175.69 78.79 179.91 67.66 172.27 54.17 172.7 45.66 162.22 32.6 158.81 27.38 146.36 15.8 139.43 14.29 126.02 5.13 116.1 7.48 102.81 1.5 90.71 7.48 78.61 5.13 65.31 14.29 55.4 15.8 41.98 27.38 35.05 32.6 22.6 45.66 19.2 54.17 8.72 67.66 9.14 78.79 1.5 91.61 5.72 104.44 1.5 115.57 9.14 129.06 8.72 137.56 19.2 150.63 22.61 155.85 35.05 167.43 41.98 168.94 55.4 178.1 65.31 175.75 78.61 181.73 90.71"/>
<path class="cls-2" d="M171.42,90.71,166.12,80l2.09-11.77-8.11-8.79-1.34-11.87L148.5,41.42l-4.62-11-11.57-3-7.54-9.28-11.94.37L103,11.7,91.61,15.44,80.26,11.7,70.4,18.47l-12-.37-7.53,9.28-11.57,3-4.62,11L24.47,47.55,23.13,59.43,15,68.22,17.1,80,11.81,90.71l5.29,10.71L15,113.2,23.13,122l1.34,11.88L34.73,140l4.62,11,11.57,3,7.53,9.28,12-.37,9.86,6.76L91.61,166,103,169.71l9.86-6.76,11.94.37,7.54-9.28,11.57-3,4.62-11,10.26-6.14L160.1,122l8.11-8.78-2.09-11.77Zm-37-22.18L93.66,123.8a13.2,13.2,0,0,1-20.43,1L49.45,98.42A10.22,10.22,0,1,1,64.63,84.73L81.45,103.4a1.29,1.29,0,0,0,1,.41,1.25,1.25,0,0,0,.95-.51L118,56.4a10.22,10.22,0,1,1,16.45,12.13Z"/>
</g>
</g>
</svg>